<?xml version="1.0" encoding="utf-8"?>
<!-- Svg Vector Icons : http://www.onlinewebfonts.com/icon -->
<!DOCTYPE svg PUBLIC "-//W3C//DTD SVG 1.1//EN" "http://www.w3.org/Graphics/SVG/1.1/DTD/svg11.dtd">
<svg version="1.1" xmlns="http://www.w3.org/2000/svg" xmlns:xlink="http://www.w3.org/1999/xlink"  height ='24px' width='24px' viewBox="0 0 1000 1000" enable-background="new 0 0 1000 1000" xml:space="preserve" style="stroke:rgb(255,0,0);stroke-width:2">
<metadata> Svg Vector Icons : http://www.onlinewebfonts.com/icon </metadata>
<g><g transform="translate(0.000000,511.000000) scale(0.100000,-0.100000)"><path stroke-width='2px' d="M2526.1,4579.3c-497.6-100.9-892-478.8-976.5-936.6c-18.8-96.3-25.8-1011.7-25.8-2870.8v-2729.9h-145.5c-633.8-2.4-1161.9-436.6-1262.9-1037.5C19.1-3561.3,383-4138.7,958.1-4335.9l154.9-51.6l2699.4-7c1941.3-4.7,2744.1,0,2859.1,21.1c469.5,77.5,859.1,478.9,964.8,990.6c32.8,157.3,37.5,582.2,39.9,3600.8c2.4,1882.6,9.4,3448.2,18.8,3481.1l16.4,58.7l1072.7,11.7c1251.1,14.1,1180.7-2.3,1044.6,234.7c-157.3,277-483.5,502.3-828.6,575.1C8765.3,4628.6,2774.9,4628.6,2526.1,4579.3z M7929.7,4316.4c-166.7-126.7-326.3-345-389.7-530.5c-39.9-115-42.2-349.8-54-3654.8c-11.7-3514-11.7-3532.7-61-3661.8c-105.6-279.3-272.3-469.5-521.1-591.5l-154.9-77.5l-643.2-7c-539.9-7-662-2.4-774.6,30.5c-363.8,105.6-626.7,370.9-718.3,727.7c-93.9,354.5-4.7,718.3,239.4,978.8c180.7,194.8,464.8,323.9,711.2,323.9c131.5,0,185.4,54,138.5,140.8c-25.8,47-49.3,47-2009.3,47H1711.6l4.7,2835.6l7,2833.2l63.4,136.1c77.5,164.3,272.3,366.2,436.6,448.4c262.9,133.8,140.8,129.1,3110.2,129.1l2741.7,2.3L7929.7,4316.4z M9079.9,4382.1c194.8-61,323.9-140.8,460.1-288.7l117.4-124.4l-462.4-7c-255.8-2.3-671.3-2.3-924.8,0l-460.1,7l93.9,105.6C8166.8,4370.4,8683.2,4506.5,9079.9,4382.1z M4889.9-2211.6c-194.8-143.2-361.5-380.3-436.6-622c-68.1-227.7-54-575.1,35.2-788.7c79.8-187.8,218.3-373.2,370.9-495.3l119.7-93.9h-1899c-2068,0-2039.8-2.3-2288.7,133.8c-159.6,86.9-335.7,284-424.9,469.5c-138.5,298.1-112.7,713.6,63.4,988.2c126.8,199.5,396.7,396.7,615,448.3c51.6,11.7,948.3,21.1,2014,23.5l1922.5,2.4L4889.9-2211.6z"/><path stroke-width='2px' d="M2453.3,3215.5c-21.1-18.8-37.5-44.6-37.5-56.3c0-11.7,16.4-37.5,37.5-56.3c32.9-32.9,260.6-37.6,2168.9-37.6c1908.4,0,2136.1,4.7,2168.9,37.6c21.1,18.8,37.5,44.6,37.5,56.3c0,11.7-16.4,37.6-37.5,56.3c-32.9,32.9-260.6,37.5-2168.9,37.5C2713.9,3253,2486.2,3248.3,2453.3,3215.5z"/><path d="M2453.3,1807.1c-21.1-18.8-37.5-44.6-37.5-56.3s16.4-37.5,37.5-56.3c32.9-32.9,260.6-37.6,2168.9-37.6c1908.4,0,2136.1,4.7,2168.9,37.6c21.1,18.8,37.5,44.6,37.5,56.3s-16.4,37.6-37.5,56.3c-32.9,32.8-260.6,37.5-2168.9,37.5C2713.9,1844.6,2486.2,1839.9,2453.3,1807.1z"/><path d="M2453.3,398.7c-21.1-18.8-37.5-44.6-37.5-56.3c0-11.7,16.4-37.5,37.5-56.3c32.9-32.9,260.6-37.6,2168.9-37.6c1908.4,0,2136.1,4.7,2168.9,37.6c21.1,18.8,37.5,44.6,37.5,56.3c0,11.7-16.4,37.6-37.5,56.3c-32.9,32.8-260.6,37.5-2168.9,37.5C2713.9,436.2,2486.2,431.5,2453.3,398.7z"/><path d="M2453.3-1009.8c-21.1-18.8-37.5-44.6-37.5-56.3s16.4-37.6,37.5-56.3c32.9-32.9,260.6-37.6,2168.9-37.6c1908.4,0,2136.1,4.7,2168.9,37.6c21.1,18.8,37.5,44.6,37.5,56.3s-16.4,37.6-37.5,56.3c-32.9,32.9-260.6,37.6-2168.9,37.6C2713.9-972.2,2486.2-976.9,2453.3-1009.8z"/></g></g>
</svg>