<?xml version="1.0" encoding="iso-8859-1"?>
<!-- Generator: Adobe Illustrator 17.1.0, SVG Export Plug-In . SVG Version: 6.00 Build 0)  -->
<!DOCTYPE svg PUBLIC "-//W3C//DTD SVG 1.1//EN" "http://www.w3.org/Graphics/SVG/1.1/DTD/svg11.dtd">
<svg version="1.1" id="Capa_1" xmlns="http://www.w3.org/2000/svg" xmlns:xlink="http://www.w3.org/1999/xlink" x="0px" y="0px"
	 viewBox="0 0 294 294" style="enable-background:new 0 0 294 294;" xml:space="preserve">
<path d="M285.567,129.029c-2.388,0-4.723,0.955-7.11,2.858L241.432,161.5H231v-29c0-13.807-10.86-25-24.667-25h-79.069
	C125.763,98.003,116,90.17,102,86.502V68.5h83.172c4.379,4,10.331,7,16.883,7h38.848c13.418,0,24.335-11.082,24.335-24.5
	s-10.917-24.5-24.335-24.5h-38.848c-6.553,0-12.504,3-16.883,7H95.189C80.026,33.5,67,45.81,67,60.973v25.529
	C54,90.17,44.616,98.003,43.115,107.5H25.333C11.526,107.5,0,118.693,0,132.5v110c0,13.807,11.526,25,25.333,25h181
	c13.807,0,24.667-11.193,24.667-25v-9h10.412l37.13,29.598c2.384,1.901,4.804,2.852,7.191,2.852c2.752,0,5.053-1.336,6.605-3.655
	c1.213-1.813,1.662-4.138,1.662-6.897V139.568C294,132.288,289.847,129.029,285.567,129.029z M143,190.5c0,4.418-3.582,8-8,8H42
	c-4.418,0-8-3.582-8-8v-33c0-4.418,3.582-8,8-8h93c4.418,0,8,3.582,8,8V190.5z M199,169.5c0,4.418-3.582,8-8,8h-13
	c-4.418,0-8-3.582-8-8v-12c0-4.418,3.582-8,8-8h13c4.418,0,8,3.582,8,8V169.5z"/>
<g>
</g>
<g>
</g>
<g>
</g>
<g>
</g>
<g>
</g>
<g>
</g>
<g>
</g>
<g>
</g>
<g>
</g>
<g>
</g>
<g>
</g>
<g>
</g>
<g>
</g>
<g>
</g>
<g>
</g>
</svg>
